# xmcd CD database file
#
# Track frame offsets:
#	150
#	13815
#	24803
#	37318
#	47536
#	60224
#	73358
#	86740
#	100133
#	113237
#	126058
#	137438
#	150404
#
# Disc length: 2243 seconds
#
# Revision: 0
# Processed by: cddbd v1.5.2PL0 Copyright (c) Steve Scherf et al.
# Submitted via: CDex 1.70beta2
#
DISCID=a308c10d
DTITLE=B.B. KING - Can't Kick The Blues LP 2
DYEAR=2011
DGENRE=Blues
TTITLE0=Sweet Little Angel
TTITLE1=Let's Do The Boogie
TTITLE2=Why Do Things Happen To Me
TTITLE3=Come By Here
TTITLE4=What Can I Do
TTITLE5=Tomorrow Is An Other Day
TTITLE6=Troubles, Troubles, Troubles
TTITLE7=Blind Love
TTITLE8=When My Heart Beats Like A Hammer
TTITLE9=Be Careful With A Fool
TTITLE10=Sweet Sixteen(Part 2)
TTITLE11=I Love You So
TTITLE12=Hold That Train
EXTD=YEAR: 2011
EXTT0=
EXTT1=
EXTT2=
EXTT3=
EXTT4=
EXTT5=
EXTT6=
EXTT7=
EXTT8=
EXTT9=
EXTT10=
EXTT11=
EXTT12=
PLAYORDER=
